<svg width="197" height="54" viewBox="0 0 197 54" fill="none" xmlns="http://www.w3.org/2000/svg">
<path d="M81.3086 19.6834V24.7895H89.5431V29.536H81.3086V35.0737H90.6219V40H75.1597V14.757H90.6219V19.6834H81.3086ZM103.639 34.2466L107.99 19.9351H114.535L107.415 40H99.8279L92.7081 19.9351H99.2885L103.639 34.2466ZM136.037 29.6439C136.037 30.2192 136.001 30.8186 135.93 31.4418H122.014C122.109 32.6884 122.505 33.6473 123.2 34.3185C123.919 34.9658 124.794 35.2894 125.825 35.2894C127.359 35.2894 128.426 34.6422 129.025 33.3476H135.57C135.234 34.6661 134.623 35.8528 133.736 36.9076C132.873 37.9623 131.782 38.7894 130.464 39.3887C129.145 39.988 127.671 40.2877 126.041 40.2877C124.075 40.2877 122.325 39.8682 120.791 39.0291C119.257 38.1901 118.058 36.9915 117.195 35.4333C116.332 33.875 115.901 32.0531 115.901 29.9675C115.901 27.8819 116.32 26.06 117.159 24.5018C118.022 22.9436 119.221 21.745 120.755 20.906C122.289 20.0669 124.051 19.6474 126.041 19.6474C127.983 19.6474 129.709 20.0549 131.219 20.87C132.729 21.6851 133.904 22.8477 134.743 24.358C135.606 25.8682 136.037 27.6302 136.037 29.6439ZM129.745 28.0258C129.745 26.971 129.385 26.1319 128.666 25.5087C127.947 24.8854 127.048 24.5737 125.969 24.5737C124.938 24.5737 124.063 24.8734 123.344 25.4727C122.649 26.072 122.217 26.923 122.049 28.0258H129.745ZM151.507 19.7193C153.857 19.7193 155.726 20.4864 157.117 22.0207C158.531 23.5309 159.238 25.6165 159.238 28.2775V40H153.125V29.1045C153.125 27.7621 152.778 26.7193 152.083 25.9761C151.387 25.233 150.452 24.8614 149.278 24.8614C148.103 24.8614 147.168 25.233 146.473 25.9761C145.778 26.7193 145.43 27.7621 145.43 29.1045V40H139.281V19.9351H145.43V22.596C146.053 21.709 146.893 21.0138 147.947 20.5104C149.002 19.983 150.189 19.7193 151.507 19.7193ZM174.694 34.786V40H171.566C169.337 40 167.599 39.4606 166.352 38.3819C165.105 37.2791 164.482 35.4932 164.482 33.024V25.0412H162.037V19.9351H164.482V15.0447H170.631V19.9351H174.658V25.0412H170.631V33.0959C170.631 33.6952 170.775 34.1268 171.063 34.3904C171.35 34.6541 171.83 34.786 172.501 34.786H174.694ZM186.282 40.2877C184.532 40.2877 182.974 39.988 181.607 39.3887C180.241 38.7894 179.162 37.9743 178.371 36.9435C177.58 35.8887 177.137 34.7141 177.041 33.4196H183.118C183.19 34.1148 183.513 34.6781 184.089 35.1096C184.664 35.5411 185.371 35.7569 186.21 35.7569C186.977 35.7569 187.565 35.613 187.972 35.3254C188.404 35.0137 188.619 34.6182 188.619 34.1387C188.619 33.5634 188.32 33.1439 187.72 32.8802C187.121 32.5925 186.15 32.2809 184.808 31.9453C183.369 31.6096 182.171 31.262 181.212 30.9025C180.253 30.5189 179.426 29.9316 178.731 29.1405C178.036 28.3254 177.688 27.2347 177.688 25.8682C177.688 24.7176 178 23.6748 178.623 22.7398C179.27 21.7809 180.205 21.0258 181.428 20.4744C182.674 19.9231 184.148 19.6474 185.851 19.6474C188.368 19.6474 190.345 20.2707 191.784 21.5173C193.246 22.7638 194.085 24.4179 194.301 26.4795H188.619C188.523 25.7843 188.212 25.233 187.684 24.8254C187.181 24.4179 186.51 24.2141 185.671 24.2141C184.952 24.2141 184.4 24.358 184.017 24.6457C183.633 24.9094 183.441 25.2809 183.441 25.7604C183.441 26.3357 183.741 26.7672 184.34 27.0549C184.964 27.3426 185.922 27.6302 187.217 27.9179C188.703 28.3014 189.914 28.685 190.849 29.0686C191.784 29.4282 192.599 30.0275 193.294 30.8665C194.013 31.6816 194.385 32.7843 194.409 34.1747C194.409 35.3493 194.073 36.4041 193.402 37.3391C192.755 38.25 191.808 38.9692 190.561 39.4966C189.339 40.024 187.912 40.2877 186.282 40.2877Z" fill="url(#paint0_linear_4_19)"/>
<path d="M21.1437 29.6439C21.1437 30.2192 21.1077 30.8186 21.0358 31.4418H7.11981C7.2157 32.6884 7.61125 33.6473 8.30645 34.3185C9.02562 34.9658 9.90062 35.2894 10.9314 35.2894C12.4657 35.2894 13.5324 34.6422 14.1318 33.3476H20.6762C20.3406 34.6661 19.7293 35.8528 18.8423 36.9076C17.9793 37.9623 16.8886 38.7894 15.5701 39.3887C14.2516 39.988 12.7773 40.2877 11.1472 40.2877C9.18144 40.2877 7.43146 39.8682 5.89722 39.0291C4.36298 38.1901 3.16436 36.9915 2.30135 35.4333C1.43835 33.875 1.00684 32.0531 1.00684 29.9675C1.00684 27.8819 1.42636 26.06 2.2654 24.5018C3.1284 22.9436 4.32703 21.745 5.86126 20.906C7.3955 20.0669 9.15747 19.6474 11.1472 19.6474C13.089 19.6474 14.815 20.0549 16.3252 20.87C17.8355 21.6851 19.0101 22.8477 19.8492 24.358C20.7122 25.8682 21.1437 27.6302 21.1437 29.6439ZM14.8509 28.0258C14.8509 26.971 14.4913 26.1319 13.7722 25.5087C13.053 24.8854 12.154 24.5737 11.0753 24.5737C10.0445 24.5737 9.16946 24.8734 8.45028 25.4727C7.75508 26.072 7.32358 26.923 7.15577 28.0258H14.8509ZM30.5365 23.2792C31.2557 22.1765 32.1546 21.3135 33.2334 20.6902C34.3121 20.0429 35.5108 19.7193 36.8292 19.7193V26.2278H35.1392C33.605 26.2278 32.4543 26.5634 31.6872 27.2347C30.92 27.8819 30.5365 29.0326 30.5365 30.6867V40H24.3876V19.9351H30.5365V23.2792ZM48.9018 40.2877C46.9361 40.2877 45.1621 39.8682 43.5799 39.0291C42.0217 38.1901 40.7871 36.9915 39.8762 35.4333C38.9892 33.875 38.5457 32.0531 38.5457 29.9675C38.5457 27.9059 39.0012 26.096 39.9121 24.5378C40.8231 22.9556 42.0697 21.745 43.6518 20.906C45.234 20.0669 47.008 19.6474 48.9737 19.6474C50.9395 19.6474 52.7134 20.0669 54.2956 20.906C55.8778 21.745 57.1244 22.9556 58.0353 24.5378C58.9463 26.096 59.4017 27.9059 59.4017 29.9675C59.4017 32.0292 58.9343 33.8511 57.9993 35.4333C57.0884 36.9915 55.8298 38.1901 54.2237 39.0291C52.6415 39.8682 50.8675 40.2877 48.9018 40.2877ZM48.9018 34.9658C50.0765 34.9658 51.0713 34.5343 51.8864 33.6713C52.7254 32.8083 53.1449 31.5737 53.1449 29.9675C53.1449 28.3614 52.7374 27.1268 51.9223 26.2638C51.1312 25.4008 50.1484 24.9693 48.9737 24.9693C47.7751 24.9693 46.7802 25.4008 45.9892 26.2638C45.1981 27.1028 44.8025 28.3374 44.8025 29.9675C44.8025 31.5737 45.1861 32.8083 45.9532 33.6713C46.7443 34.5343 47.7272 34.9658 48.9018 34.9658ZM70.8265 40.2877C69.0765 40.2877 67.5183 39.988 66.1518 39.3887C64.7854 38.7894 63.7067 37.9743 62.9156 36.9435C62.1245 35.8887 61.681 34.7141 61.5851 33.4196H67.6621C67.734 34.1148 68.0577 34.6781 68.633 35.1096C69.2083 35.5411 69.9155 35.7569 70.7546 35.7569C71.5217 35.7569 72.109 35.613 72.5165 35.3254C72.948 35.0137 73.1638 34.6182 73.1638 34.1387C73.1638 33.5634 72.8641 33.1439 72.2648 32.8802C71.6655 32.5925 70.6946 32.2809 69.3522 31.9453C67.9138 31.6096 66.7152 31.262 65.7563 30.9025C64.7974 30.5189 63.9704 29.9316 63.2752 29.1405C62.58 28.3254 62.2324 27.2347 62.2324 25.8682C62.2324 24.7176 62.544 23.6748 63.1673 22.7398C63.8145 21.7809 64.7495 21.0258 65.9721 20.4744C67.2186 19.9231 68.6929 19.6474 70.395 19.6474C72.9121 19.6474 74.8898 20.2707 76.3281 21.5173C77.7905 22.7638 78.6295 24.4179 78.8453 26.4795H73.1638C73.0679 25.7843 72.7563 25.233 72.2289 24.8254C71.7254 24.4179 71.0542 24.2141 70.2152 24.2141C69.496 24.2141 68.9446 24.358 68.5611 24.6457C68.1775 24.9094 67.9857 25.2809 67.9857 25.7604C67.9857 26.3357 68.2854 26.7672 68.8847 27.0549C69.508 27.3426 70.4669 27.6302 71.7614 27.9179C73.2477 28.3014 74.4583 28.685 75.3932 29.0686C76.3281 29.4282 77.1432 30.0275 77.8384 30.8665C78.5576 31.6816 78.9292 32.7843 78.9531 34.1747C78.9531 35.3493 78.6175 36.4041 77.9463 37.3391C77.299 38.25 76.3521 38.9692 75.1056 39.4966C73.883 40.024 72.4566 40.2877 70.8265 40.2877Z" fill="white"/>
<defs>
<linearGradient id="paint0_linear_4_19" x1="72.8027" y1="-5.22513e-06" x2="196.623" y2="44.4863" gradientUnits="userSpaceOnUse">
<stop stop-color="#F94A8A"/>
<stop offset="1" stop-color="#6726DA"/>
</linearGradient>
</defs>
</svg>
